<svg width="398" height="693" viewBox="0 0 398 693" fill="none" xmlns="http://www.w3.org/2000/svg">
<g filter="url(#filter0_f_734_654)">
<path d="M176.067 393C176.067 489.65 95.2396 485 -4.4664 485C-104.172 485 -185 489.65 -185 393C-185 296.35 -104.172 218 -4.4664 218C95.2396 218 176.067 296.35 176.067 393Z" fill="#6479B2"/>
</g>
<g filter="url(#filter1_f_734_654)">
<path d="M190.067 383C190.067 479.65 109.24 485 9.5336 485C-90.1724 485 -171 479.65 -171 383C-171 286.35 -90.1724 208 9.5336 208C109.24 208 190.067 286.35 190.067 383Z" fill="#6479B2"/>
</g>
<defs>
<filter id="filter0_f_734_654" x="-392.51" y="10.4901" width="776.087" height="682.055" filterUnits="userSpaceOnUse" color-interpolation-filters="sRGB">
<feFlood flood-opacity="0" result="BackgroundImageFix"/>
<feBlend mode="normal" in="SourceGraphic" in2="BackgroundImageFix" result="shape"/>
<feGaussianBlur stdDeviation="103.755" result="effect1_foregroundBlur_734_654"/>
</filter>
<filter id="filter1_f_734_654" x="-378.51" y="0.490112" width="776.087" height="692.02" filterUnits="userSpaceOnUse" color-interpolation-filters="sRGB">
<feFlood flood-opacity="0" result="BackgroundImageFix"/>
<feBlend mode="normal" in="SourceGraphic" in2="BackgroundImageFix" result="shape"/>
<feGaussianBlur stdDeviation="103.755" result="effect1_foregroundBlur_734_654"/>
</filter>
</defs>
</svg>
