<svg width="32" height="33" viewBox="0 0 32 33" fill="none" xmlns="http://www.w3.org/2000/svg">
<g id="Frame">
<path id="Vector" d="M4.08824 30.9538C5.79383 30.9538 7.17648 29.5712 7.17648 27.8656C7.17648 26.16 5.79383 24.7773 4.08824 24.7773C2.38265 24.7773 1 26.16 1 27.8656C1 29.5712 2.38265 30.9538 4.08824 30.9538Z" stroke="white" stroke-width="1.5"/>
<path id="Vector_2" d="M27.9115 30.9538C29.6171 30.9538 30.9997 29.5712 30.9997 27.8656C30.9997 26.16 29.6171 24.7773 27.9115 24.7773C26.2059 24.7773 24.8232 26.16 24.8232 27.8656C24.8232 29.5712 26.2059 30.9538 27.9115 30.9538Z" stroke="white" stroke-width="1.5"/>
<path id="Vector_3" d="M16.0003 8.89132C17.7059 8.89132 19.0886 7.50867 19.0886 5.80308C19.0886 4.0975 17.7059 2.71484 16.0003 2.71484C14.2948 2.71484 12.9121 4.0975 12.9121 5.80308C12.9121 7.50867 14.2948 8.89132 16.0003 8.89132Z" stroke="white" stroke-width="1.5"/>
<path id="Vector_4" d="M14.0242 9.32812L5.62305 24.3301" stroke="white" stroke-width="1.5"/>
<path id="Vector_5" d="M17.9756 9.32812L26.3767 24.3301" stroke="white" stroke-width="1.5"/>
<path id="Vector_6" d="M8.05859 27.8594H23.9409" stroke="white" stroke-width="1.5"/>
</g>
</svg>
