<svg width="124" height="117" viewBox="0 0 124 117" fill="none" xmlns="http://www.w3.org/2000/svg">
<rect x="31.6562" y="28.6064" width="64" height="64" rx="16" fill="white" fill-opacity="0.1"/>
<g clip-path="url(#clip0_734_1042)">
<path d="M71.7795 64.1689H88.6842L95.8559 69.7997L71.7795 92.8362L47.7031 69.7997L62.815 64.6807L71.7795 64.1689Z" fill="url(#paint0_linear_734_1042)"/>
<path d="M71.7796 92.8342L57.436 75.4297H86.1228L71.7796 92.8342Z" fill="url(#paint1_linear_734_1042)"/>
<path d="M86.1228 75.43L95.8559 69.7992L71.7795 46.7627L47.7031 69.7992L57.4362 75.43H86.1228Z" fill="url(#paint2_linear_734_1042)"/>
<path d="M71.7798 46.7646L86.1231 75.4309H57.4365L71.7798 46.7646Z" fill="url(#paint3_linear_734_1042)"/>
<g opacity="0.15" filter="url(#filter0_f_734_1042)">
<path d="M21.9348 60.1773C21.9348 60.1773 13.0045 92.7577 43.2363 111.753C68.8023 127.817 94.6228 94.8246 75.4021 77.9985C62.2327 66.4705 61.8894 57.8444 61.0531 46.5967C59.7264 28.7547 32.391 20.478 21.9348 60.1773Z" fill="url(#paint4_radial_734_1042)"/>
</g>
</g>
<defs>
<filter id="filter0_f_734_1042" x="-1.29688" y="9.7627" width="105.382" height="128.282" filterUnits="userSpaceOnUse" color-interpolation-filters="sRGB">
<feFlood flood-opacity="0" result="BackgroundImageFix"/>
<feBlend mode="normal" in="SourceGraphic" in2="BackgroundImageFix" result="shape"/>
<feGaussianBlur stdDeviation="11" result="effect1_foregroundBlur_734_1042"/>
</filter>
<linearGradient id="paint0_linear_734_1042" x1="85.0985" y1="64.1689" x2="85.0985" y2="100.515" gradientUnits="userSpaceOnUse">
<stop stop-color="#FFD1A7"/>
<stop offset="1" stop-color="#CA17DA"/>
</linearGradient>
<linearGradient id="paint1_linear_734_1042" x1="71.7796" y1="100.513" x2="71.7796" y2="75.4297" gradientUnits="userSpaceOnUse">
<stop stop-color="#CA17DA"/>
<stop offset="1" stop-color="#FFD1A7"/>
</linearGradient>
<linearGradient id="paint2_linear_734_1042" x1="58.2684" y1="85.1561" x2="58.2684" y2="39.0843" gradientUnits="userSpaceOnUse">
<stop stop-color="#FFD1A7"/>
<stop offset="1" stop-color="#FF0000"/>
</linearGradient>
<linearGradient id="paint3_linear_734_1042" x1="71.5609" y1="39.0862" x2="71.5609" y2="75.4309" gradientUnits="userSpaceOnUse">
<stop stop-color="#FF0000"/>
<stop offset="1" stop-color="#FFD1A7"/>
</linearGradient>
<radialGradient id="paint4_radial_734_1042" cx="0" cy="0" r="1" gradientUnits="userSpaceOnUse" gradientTransform="translate(61.8597 50.4773) rotate(92.6593) scale(58.1852 51.9563)">
<stop stop-color="#DBBBFF"/>
<stop offset="1" stop-color="#0FF7EC"/>
</radialGradient>
<clipPath id="clip0_734_1042">
<rect width="124" height="116" fill="white" transform="translate(0 0.106445)"/>
</clipPath>
</defs>
</svg>
