<svg width="1095" height="955" viewBox="0 0 1095 955" fill="none" xmlns="http://www.w3.org/2000/svg">
<path d="M493.782 230.707C441.025 217.312 397.963 218.329 370.61 233.493C343.307 248.628 332.927 277.166 341.074 315.212C349.224 353.27 375.5 398.85 416.228 445.503C456.951 492.151 510.042 537.488 567.997 575.102C625.952 612.717 685.825 640.698 739.151 655.096C792.489 669.5 836.505 669.566 865.037 655.398C879.287 648.319 889.328 637.863 894.955 624.513C900.583 611.158 901.808 594.885 898.402 576.173C891.576 538.738 866.54 493.496 826.784 446.844M564.871 214.081C471.627 162.625 386.671 134.673 325.29 135.195C294.609 135.456 270.864 142.823 254.766 156.593C238.673 170.36 230.168 190.571 230.058 216.629C229.84 268.772 263.259 340.781 324.402 419.7C385.533 498.603 470.318 579.174 563.488 646.899C656.662 714.625 752.077 765.039 832.555 789.079C872.79 801.098 907.954 806.123 936.687 804.262C965.42 802.4 987.698 793.657 1002.23 778.164C1016.76 762.671 1023.12 740.887 1021.34 714.029C1019.54 687.167 1009.6 655.258 991.58 619.562C955.521 548.169 889.532 466.393 805.457 388.962M24.1474 38.4059C-66.669 139.748 113.105 418.642 425.683 661.335C738.262 904.027 1065.28 1018.61 1156.09 917.275C1246.91 815.93 1067.14 537.036 754.559 294.343C441.98 51.651 114.964 -62.9361 24.1474 38.4059Z" stroke="white" stroke-opacity="0.1" stroke-width="1.03922"/>
</svg>
